<svg xmlns="http://www.w3.org/2000/svg" xmlns:xlink="http://www.w3.org/1999/xlink" width="355.666" height="274.968" viewBox="0 0 355.666 274.968"><defs><clipPath id="clip-path"><path id="Path_1584" data-name="Path 1584" d="M33.8 81.288l-6-3.457A55.663 55.663 0 0035.844 66.4l6 3.457A58.656 58.656 0 0133.8 81.288z" transform="translate(-27.8 -66.4)"/></clipPath><clipPath id="clip-path-2"><path id="Path_1592" data-name="Path 1592" d="M23.2 83.657l-6-3.457a13.474 13.474 0 007.409 1.693l6 3.457a12.388 12.388 0 01-7.409-1.693z" transform="translate(-17.2 -80.2)"/></clipPath><clipPath id="clip-path-3"><path id="Path_1602" data-name="Path 1602" d="M45.2 55.784l-6-3.457A73.948 73.948 0 0048.02 18.6l6 3.457a73.713 73.713 0 01-8.82 33.727z" transform="translate(-39.2 -18.6)"/></clipPath><clipPath id="clip-path-4"><path id="Path_1611" data-name="Path 1611" d="M44.2 18.2c1.341.776 3.1.847 5.292.282l6 3.457c-2.187.564-3.951.494-5.292-.282-1.837-1.057-4.236-2.469-6-3.457z" transform="translate(-44.2 -18.2)"/></clipPath><clipPath id="clip-path-5"><path id="Path_1622" data-name="Path 1622" d="M52.4 17.151l-6-3.457c1.27.706 3.246.776 6.28-.494l6 3.457c-3.037 1.27-5.013 1.2-6.28.494z" transform="translate(-46.4 -13.2)"/></clipPath><clipPath id="clip-path-6"><path id="Path_1624" data-name="Path 1624" d="M14.769 78.128A14.49 14.49 0 0111.1 74.6c1.976 1.129 3.951 2.328 6 3.457a15.752 15.752 0 003.669 3.528l.635.423-6-3.457a2.463 2.463 0 00-.635-.423z" transform="translate(-11.1 -74.6)"/></clipPath><clipPath id="clip-path-7"><path id="Path_1626" data-name="Path 1626" d="M49 18.242l-6-3.457a4.819 4.819 0 01-1.411-1.27c-1.334-1.835-1.546-4.587-1.405-6.915l6 3.457c-.141 2.328 0 5.08 1.411 6.915A4.918 4.918 0 0049 18.242z" transform="translate(-40.147 -6.6)"/></clipPath><clipPath id="clip-path-8"><path id="Path_1630" data-name="Path 1630" d="M8.892 66.3C5.717 61.993 3.953 55.29 3.6 46.4l6 3.457c.353 8.89 2.117 15.593 5.292 19.9-.988-.564-1.976-1.129-2.963-1.764a4.215 4.215 0 00-.776-.423c-.212-.141-.564-.282-.776-.423a1.543 1.543 0 01-.353-.212c-.212-.141-.494-.282-.706-.423z" transform="translate(-3.6 -46.4)"/></clipPath><clipPath id="clip-path-9"><path id="Path_1646" data-name="Path 1646" d="M10.3 29.567a19.284 19.284 0 001.344-8.467l6 3.457a19.284 19.284 0 01-1.344 8.467c-1.976-1.129-4.022-2.258-6-3.457 1.976 1.129 3.951 2.328 6 3.457a24.129 24.129 0 01-6.7 9.314l-6-3.457a23.621 23.621 0 006.7-9.314z" transform="translate(-3.6 -21.1)"/></clipPath><clipPath id="clip-path-10"><path id="Path_1650" data-name="Path 1650" d="M16.158 76.6l-6-3.457C5.221 70.248.141 62.981 0 45.2l6 3.457c.138 17.781 5.219 25.048 10.158 27.943z" transform="translate(0 -45.2)"/></clipPath><clipPath id="clip-path-11"><path id="Path_1670" data-name="Path 1670" d="M6 41.12l-6-3.457C11.36 29.2 7.761 20.023 7.55 19.6l6 3.457c.138.424 3.737 9.596-7.55 18.063z" transform="translate(0 -19.6)"/></clipPath><clipPath id="clip-path-12"><path id="Path_1673" data-name="Path 1673" d="M37.5 6.9l1.056.6a2.15 2.15 0 01.905 1.961l-1.056-.6A2.094 2.094 0 0037.5 6.9z" transform="translate(-37.5 -6.9)"/></clipPath><clipPath id="clip-path-13"><path id="Path_1685" data-name="Path 1685" d="M31.817.288l1.056.629a2.931 2.931 0 00-3.017.3L28.8.615a3 3 0 013.017-.327z" transform="translate(-28.8 -.015)"/></clipPath><clipPath id="clip-path-14"><path id="Path_1698" data-name="Path 1698" d="M24.5 47.778a.667.667 0 00-.251-.578l4.45 2.59a.667.667 0 01.251.578 1.858 1.858 0 01-.4 1.081l-4.45-2.59a2.047 2.047 0 00.4-1.081z" transform="translate(-24.1 -47.2)"/></clipPath><clipPath id="clip-path-15"><path id="Path_1703" data-name="Path 1703" d="M19.5 55.9c.05.025.075.05.126.05l4.45 2.59a.192.192 0 01-.126-.05 333.225 333.225 0 00-4.45-2.59z" transform="translate(-19.5 -55.9)"/></clipPath><clipPath id="clip-path-16"><path id="Path_1714" data-name="Path 1714" d="M22.729 46.991l4.45 2.59a.636.636 0 00-.629.05l-4.45-2.59a.582.582 0 01.629-.05z" transform="translate(-22.1 -46.921)"/></clipPath><clipPath id="clip-path-17"><path id="Path_1730" data-name="Path 1730" d="M23.227 52.127l-4.475-2.59a.667.667 0 01-.251-.578 2 2 0 01.905-1.559l4.45 2.59a1.957 1.957 0 00-.905 1.559.623.623 0 00.276.578z" transform="translate(-18.5 -47.4)"/></clipPath><clipPath id="clip-path-18"><path id="Path_1755" data-name="Path 1755" d="M13.031 10.245L12 9.642A9.35 9.35 0 0116.249 2.3l1.031.629a9.332 9.332 0 00-4.249 7.316z" transform="translate(-12 -2.3)"/></clipPath><linearGradient id="linear-gradient" x1=".736" y1=".199" x2=".233" y2=".743" gradientUnits="objectBoundingBox"><stop offset="0" stop-color="#b6509e"/><stop offset="1" stop-color="#2ebac6"/></linearGradient><linearGradient id="linear-gradient-2" x1="1" y1=".365" x2="0" y2=".712" xlink:href="#linear-gradient"/><linearGradient id="linear-gradient-3" x1=".917" y1=".095" x2=".166" y2=".888" xlink:href="#linear-gradient"/><linearGradient id="linear-gradient-4" x1="1.282" y1=".148" x2=".458" y2=".811" xlink:href="#linear-gradient"/><filter id="Path_872" x="0" y="35.622" width="355.666" height="239.346" filterUnits="userSpaceOnUse"><feOffset dy="10"/><feGaussianBlur stdDeviation="10" result="blur"/><feFlood flood-opacity=".161"/><feComposite operator="in" in2="blur"/><feComposite in="SourceGraphic"/></filter><style>.cls-2{fill:#fff}.cls-8{fill:#cbcbcb}.cls-15{fill:#a4a4a4}.cls-16{fill:#a1a1a1}.cls-17{fill:#9c9c9c}.cls-18{fill:#989898}.cls-20{fill:#8a8a8a}.cls-21{fill:#8f8f8f}.cls-22{fill:#939393}.cls-28{fill:#757575}.cls-30{fill:#466825}.cls-31{fill:#496c26}.cls-32{fill:#4a6f27}.cls-33{fill:#4c7128}.cls-34{fill:#4f7529}.cls-35{fill:#517829}.cls-36{fill:#537b2a}.cls-37{fill:#557f2c}.cls-38{fill:#f1f1f1}.cls-41{fill:#3c5820}.cls-43{fill:#608f31}.cls-53{fill:#acacac}.cls-63{fill:#1c1e27}.cls-64{fill:#1b1e27}.cls-65{fill:#1b1d26}.cls-66{fill:#1a1c25}.cls-74{fill:#515051}.cls-75{fill:#504e4f}.cls-76{fill:#4e4c4d}.cls-77{fill:#4c4a4b}.cls-78{fill:#4a4949}.cls-79{fill:#484748}.cls-80{fill:#464546}.cls-81{fill:#444344}.cls-82{fill:#424142}.cls-83{fill:#413f40}</style></defs><g id="Group_8408" data-name="Group 8408" transform="translate(-3028.717 -9602)"><g id="Group_929" data-name="Group 929" transform="translate(3058.717 9657.622)"><g transform="translate(-30 -55.62)" filter="url(#Path_872)"><path id="Path_872-2" data-name="Path 872" class="cls-2" d="M142.791 614.91L5.042 535.38a10.037 10.037 0 010-17.412l137.345-79.732a10.017 10.017 0 0110.084 0l138.152 79.732a10.037 10.037 0 010 17.412l-137.748 79.53a10.351 10.351 0 01-10.084 0z" transform="translate(30 -381.25)"/></g><path id="Path_873" data-name="Path 873" d="M290.587 579.429L152.905 658.96a10.016 10.016 0 01-10.084 0L5.073 579.429A9.922 9.922 0 01.1 571.9c-.067 4.3.538 11.025 4.975 13.58l137.749 79.53a10.018 10.018 0 0010.084 0l137.682-79.53c4.37-2.555 5.042-9.21 4.975-13.58a9.812 9.812 0 01-4.978 7.529z" transform="translate(-.093 -481.865)" fill="#c3c3c3"/></g><g id="Group_481" data-name="Group 481" transform="translate(3104.844 9679.565)"><path id="Path_905" data-name="Path 905" d="M148.786 649.049l-94.767-54.89a6.844 6.844 0 010-11.963l94.532-54.896a7.47 7.47 0 017.037 0l95.236 54.9a6.844 6.844 0 010 11.963l-94.767 54.655a7.323 7.323 0 01-7.271.231z" transform="translate(-50.418 -526.425)" fill="url(#linear-gradient)"/></g><path id="Path_886" data-name="Path 886" d="M294.589 239.143L230.5 202.3l-64.2 36.843 64.2 36.963z" transform="translate(2976.218 9399.7)" fill="#f8f8f8"/><path id="Path_887" data-name="Path 887" d="M166.3 304.68V198.933l64.315 37.033-.11 105.557z" transform="translate(2976.218 9439.847)" fill="#ededed"/><path id="Path_888" data-name="Path 888" class="cls-8" d="M284.125 304.474l-.237-105.429-64.033 36.855-.055 105.54z" transform="translate(2986.923 9439.813)"/><path id="Path_1556" data-name="Path 1556" d="M73.8 111.1v61.714l34.751 21.112V134.6z" transform="translate(3081.161 9556.016)" fill="#ccc"/><path id="Path_1560" data-name="Path 1560" d="M76.7 152.138l.265 28.871 21.472 14.446V167.6z" transform="translate(3080.828 9542.251)" fill="url(#linear-gradient-2)"/><path id="Path_1558" data-name="Path 1558" class="cls-2" d="M73.8 111.1l1.6 10.252 24.765 16.71 8.388-3.462z" transform="translate(3081.161 9556.016)"/><path id="Path_1559" data-name="Path 1559" class="cls-2" d="M78.8 161.414V154.3l5.423 3.907v7.114z" transform="translate(3080.717 9544.1)"/><g id="Group_810" data-name="Group 810" transform="translate(3159.517 9706.446)"><g id="Group_807" data-name="Group 807"><g id="Group_806" data-name="Group 806"><path id="Path_1561" data-name="Path 1561" class="cls-2" d="M78.8 175.214V168.1l5.423 3.907v7.114z" transform="translate(-78.8 -168.1)"/></g></g></g><g id="Group_815" data-name="Group 815" transform="translate(3159.517 9714.61)"><g id="Group_812" data-name="Group 812"><g id="Group_811" data-name="Group 811"><path id="Path_1563" data-name="Path 1563" class="cls-2" d="M78.8 189.156V182.1l5.423 3.849v7.114z" transform="translate(-78.8 -182.1)"/></g></g></g><g id="Group_821" data-name="Group 821" transform="translate(3165.465 9702.481)"><g id="Group_818" data-name="Group 818"><g id="Group_817" data-name="Group 817"><path id="Path_1565" data-name="Path 1565" class="cls-2" d="M89 168.414V161.3l5.423 3.907v7.056z" transform="translate(-89 -161.3)"/></g></g></g><g id="Group_823" data-name="Group 823" transform="translate(3158.889 9685.557)" opacity=".7"><g id="Group_822" data-name="Group 822"><path id="Path_1567" data-name="Path 1567" class="cls-2" d="M79.7 145.457V138.8l18.973 12.782v6.591z" transform="translate(-79.7 -138.8)"/></g></g><g id="Group_828" data-name="Group 828" transform="translate(3165.465 9710.528)"><g id="Group_825" data-name="Group 825"><g id="Group_824" data-name="Group 824"><path id="Path_1568" data-name="Path 1568" class="cls-2" d="M89 182.214V175.1l5.423 3.907v7.056z" transform="translate(-89 -175.1)"/></g></g></g><g id="Group_833" data-name="Group 833" transform="translate(3165.465 9718.634)"><g id="Group_830" data-name="Group 830"><g id="Group_829" data-name="Group 829"><path id="Path_1570" data-name="Path 1570" class="cls-2" d="M89 196.114V189l5.423 3.907v7.114z" transform="translate(-89 -189)"/></g></g></g><g id="Group_839" data-name="Group 839" transform="translate(3171.354 9706.854)"><g id="Group_836" data-name="Group 836"><g id="Group_835" data-name="Group 835"><path id="Path_1572" data-name="Path 1572" class="cls-2" d="M99.1 175.914V168.8l5.481 3.907v7.056z" transform="translate(-99.1 -168.8)"/></g></g></g><g id="Group_844" data-name="Group 844" transform="translate(3171.354 9714.901)"><g id="Group_841" data-name="Group 841"><g id="Group_840" data-name="Group 840"><path id="Path_1574" data-name="Path 1574" class="cls-2" d="M99.1 189.714V182.6l5.481 3.907v7.056z" transform="translate(-99.1 -182.6)"/></g></g></g><g id="Group_849" data-name="Group 849" transform="translate(3171.354 9723.007)"><g id="Group_846" data-name="Group 846"><g id="Group_845" data-name="Group 845"><path id="Path_1576" data-name="Path 1576" class="cls-2" d="M99.1 203.614V196.5l5.481 3.907v7.114z" transform="translate(-99.1 -196.5)"/></g></g></g><g id="Group_893" data-name="Group 893" transform="translate(3221.575 9675.146)"><g id="Group_865" data-name="Group 865" transform="translate(19.615 46.85)"><g id="Group_864" data-name="Group 864" clip-path="url(#clip-path)"><path id="Path_1578" data-name="Path 1578" d="M33.8 85.616l-6-3.457c.282-.282.564-.635.988-1.058l6 3.457c-.423.423-.706.776-.988 1.058" transform="translate(-27.8 -70.728)" fill="#adadad"/><path id="Path_1579" data-name="Path 1579" d="M35.2 83.674l-6-3.457c.494-.564 1.129-1.27 1.764-2.117l6 3.457c-.706.776-1.27 1.552-1.764 2.117" transform="translate(-28.212 -69.845)" fill="#a9a9a9"/><path id="Path_1580" data-name="Path 1580" class="cls-15" d="M37.627 80.545L31.7 77.087c.494-.635 1.058-1.411 1.623-2.187l6 3.457c-.635.847-1.129 1.552-1.693 2.187" transform="translate(-28.948 -68.903)"/><path id="Path_1581" data-name="Path 1581" class="cls-16" d="M39.927 77.445L34 73.987c.494-.706.988-1.411 1.482-2.187l6 3.457c-.564.776-1.058 1.552-1.552 2.187" transform="translate(-29.625 -67.99)"/><path id="Path_1582" data-name="Path 1582" class="cls-17" d="M42 74.345l-6-3.457c.423-.706.917-1.411 1.341-2.187l6 3.457A22.623 22.623 0 0142 74.345" transform="translate(-30.214 -67.077)"/><path id="Path_1583" data-name="Path 1583" class="cls-18" d="M43.927 71.48L38 67.952a17.844 17.844 0 01.917-1.552l6 3.457c-.353.564-.635 1.058-.988 1.623" transform="translate(-30.803 -66.4)"/></g></g><g id="Group_867" data-name="Group 867" transform="translate(12.136 56.587)"><g id="Group_866" data-name="Group 866" clip-path="url(#clip-path-2)"><path id="Path_1585" data-name="Path 1585" class="cls-20" d="M23.2 83.657l-6-3.457c.071 0 .071.071.141.071l6 3.457a.219.219 0 01-.141-.071" transform="translate(-17.2 -80.2)"/><path id="Path_1586" data-name="Path 1586" class="cls-21" d="M23.5 83.857l-6-3.457a4.68 4.68 0 001.341.635l6 3.457a24.476 24.476 0 01-1.341-.635" transform="translate(-17.288 -80.259)"/><path id="Path_1587" data-name="Path 1587" class="cls-22" d="M25.3 84.757l-6-3.457a10.287 10.287 0 001.341.494l6 3.457c-.423-.141-.847-.353-1.341-.494" transform="translate(-17.818 -80.524)"/><path id="Path_1588" data-name="Path 1588" class="cls-18" d="M27.2 85.357l-6-3.457c.494.141.917.212 1.411.353l6 3.457a13.723 13.723 0 01-1.411-.353" transform="translate(-18.378 -80.701)"/><path id="Path_1589" data-name="Path 1589" class="cls-17" d="M29.2 85.857l-6-3.457a10.606 10.606 0 001.411.141l6 3.457a9.563 9.563 0 01-1.411-.141" transform="translate(-18.967 -80.848)"/><path id="Path_1590" data-name="Path 1590" class="cls-16" d="M31.1 86.057l-6-3.457h1.341l6 3.457a4.212 4.212 0 01-1.341 0" transform="translate(-19.526 -80.907)"/><path id="Path_1591" data-name="Path 1591" class="cls-15" d="M33 86.057L27 82.6h.494l6 3.457H33" transform="translate(-20.085 -80.907)"/></g></g><g id="Group_869" data-name="Group 869" transform="translate(27.658 13.124)"><g id="Group_868" data-name="Group 868" clip-path="url(#clip-path-3)"><path id="Path_1593" data-name="Path 1593" class="cls-18" d="M45.2 69.563l-6-3.457a3.3 3.3 0 00.353-.706l6 3.457a2.207 2.207 0 01-.353.706" transform="translate(-39.2 -32.379)"/><path id="Path_1594" data-name="Path 1594" class="cls-22" d="M45.7 67.827l-6-3.457c.423-.776.847-1.623 1.27-2.47l6 3.457c-.423.917-.847 1.693-1.27 2.47" transform="translate(-39.347 -31.349)"/><path id="Path_1595" data-name="Path 1595" class="cls-21" d="M47.5 64.4l-6-3.457c.423-.847.776-1.693 1.2-2.54l6 3.457c-.423.847-.776 1.693-1.2 2.54" transform="translate(-39.877 -30.318)"/><path id="Path_1596" data-name="Path 1596" class="cls-20" d="M49.1 60.709l-6-3.457c.423-.917.776-1.834 1.129-2.752l6 3.457c-.353.917-.706 1.834-1.129 2.752" transform="translate(-40.348 -29.17)"/><path id="Path_1597" data-name="Path 1597" d="M50.7 56.691l-6-3.457c.353-.988.776-1.976 1.058-3.034l6 3.457a22.023 22.023 0 01-1.058 3.034" transform="translate(-40.819 -27.904)" fill="#868686"/><path id="Path_1598" data-name="Path 1598" d="M52.2 52.185l-6-3.457c.353-1.129.776-2.328 1.058-3.528l6 3.457a29.118 29.118 0 01-1.058 3.528" transform="translate(-41.261 -26.432)" fill="#818181"/><path id="Path_1599" data-name="Path 1599" d="M53.8 46.932l-6-3.457a43.944 43.944 0 001.058-4.375l6 3.457c-.353 1.482-.706 2.893-1.058 4.375" transform="translate(-41.732 -24.636)" fill="#7e7e7e"/><path id="Path_1600" data-name="Path 1600" d="M55.3 39.966l-6-3.457a87.644 87.644 0 001.058-6.209l6 3.457a87.644 87.644 0 01-1.058 6.209" transform="translate(-42.174 -22.045)" fill="#797979"/><path id="Path_1601" data-name="Path 1601" class="cls-28" d="M56.8 30.313l-6-3.457a78.244 78.244 0 00.635-8.255l6 3.457a78.244 78.244 0 01-.635 8.255" transform="translate(-42.615 -18.6)"/></g></g><g id="Group_871" data-name="Group 871" transform="translate(31.186 12.841)"><g id="Group_870" data-name="Group 870" clip-path="url(#clip-path-4)"><path id="Path_1603" data-name="Path 1603" class="cls-30" d="M50.2 21.657l-6-3.457h.071l5.929 3.457" transform="translate(-44.2 -18.2)"/><path id="Path_1604" data-name="Path 1604" class="cls-31" d="M50.2 21.657l-6-3.457a3.44 3.44 0 00.494.212l6 3.457a1.494 1.494 0 01-.494-.212" transform="translate(-44.2 -18.2)"/><path id="Path_1605" data-name="Path 1605" class="cls-32" d="M50.927 22.028L45 18.5c.141.071.353.141.494.212l6 3.457c-.212-.071-.423-.071-.564-.141" transform="translate(-44.436 -18.288)"/><path id="Path_1606" data-name="Path 1606" class="cls-33" d="M51.6 22.257l-6-3.457c.212.071.353.071.564.141l6 3.457a2.181 2.181 0 01-.564-.141" transform="translate(-44.612 -18.377)"/><path id="Path_1607" data-name="Path 1607" class="cls-34" d="M52.5 22.457L46.5 19a1.954 1.954 0 00.635.071l6 3.457a1.953 1.953 0 01-.635-.071" transform="translate(-44.877 -18.436)"/><path id="Path_1608" data-name="Path 1608" class="cls-35" d="M53.4 22.557l-6-3.457h.776l6 3.457H53.4" transform="translate(-45.142 -18.465)"/><path id="Path_1609" data-name="Path 1609" class="cls-36" d="M54.5 22.528l-6-3.457c.282 0 .635-.071.988-.071l6 3.457a4.658 4.658 0 01-.988.071" transform="translate(-45.466 -18.436)"/><path id="Path_1610" data-name="Path 1610" class="cls-37" d="M55.927 22.34L50 18.882a8.2 8.2 0 001.27-.282l6 3.457a11.464 11.464 0 01-1.341.282" transform="translate(-45.908 -18.318)"/></g></g><g id="Group_873" data-name="Group 873" transform="translate(32.739 9.314)"><path id="Path_1612" data-name="Path 1612" class="cls-38" d="M52.4 17.151l-6-3.457c1.27.706 3.246.776 6.28-.494l6 3.457c-3.037 1.27-5.013 1.2-6.28.494z" transform="translate(-46.4 -13.2)"/><g id="Group_872" data-name="Group 872" clip-path="url(#clip-path-5)"><path id="Path_1613" data-name="Path 1613" class="cls-38" d="M52.4 17.357l-6-3.457 6 3.457" transform="translate(-46.4 -13.406)"/><path id="Path_1614" data-name="Path 1614" class="cls-38" d="M52.5 17.357l-6-3.457c.141.071.212.141.353.212l6 3.457c-.141-.071-.212-.141-.353-.212" transform="translate(-46.429 -13.406)"/><path id="Path_1615" data-name="Path 1615" class="cls-38" d="M53 17.657L47 14.2c.141.071.282.071.423.141l6 3.457a1 1 0 00-.423-.141" transform="translate(-46.577 -13.494)"/><path id="Path_1616" data-name="Path 1616" class="cls-38" d="M53.6 17.857l-6-3.457a.9.9 0 00.423.071l6 3.457c-.141 0-.282-.071-.423-.071" transform="translate(-46.753 -13.553)"/><path id="Path_1617" data-name="Path 1617" class="cls-38" d="M54.2 17.957l-6-3.457c.141 0 .353.071.564.071l6 3.457a1.554 1.554 0 01-.564-.071" transform="translate(-46.93 -13.583)"/><path id="Path_1618" data-name="Path 1618" class="cls-38" d="M55 18.057L49 14.6h.635l6 3.457H55" transform="translate(-47.166 -13.612)"/><path id="Path_1619" data-name="Path 1619" class="cls-38" d="M55.9 18.028l-6-3.457c.282 0 .494-.071.776-.071l6 3.457c-.282 0-.564.071-.776.071" transform="translate(-47.431 -13.583)"/><path id="Path_1620" data-name="Path 1620" class="cls-38" d="M57 17.84l-6-3.457a9.621 9.621 0 001.2-.282l6 3.457a9.622 9.622 0 01-1.2.282" transform="translate(-47.754 -13.465)"/><path id="Path_1621" data-name="Path 1621" class="cls-38" d="M58.7 17.292l-6-3.457a11.391 11.391 0 001.834-.635l6 3.457a11.391 11.391 0 01-1.834.635" transform="translate(-48.255 -13.2)"/></g></g><g id="Group_875" data-name="Group 875" transform="translate(7.832 52.636)"><g id="Group_874" data-name="Group 874" clip-path="url(#clip-path-6)"><path id="Path_1623" data-name="Path 1623" class="cls-41" d="M19.193 73.706l-6-3.457-.635-.423C7.057 66.156 4.023 58.254 3.6 46.4l6 3.457c.423 11.854 3.457 19.756 8.961 23.5a2.859 2.859 0 00.635.353" transform="translate(-8.892 -66.297)"/></g></g><g id="Group_877" data-name="Group 877" transform="translate(28.326 4.657)"><g id="Group_876" data-name="Group 876" clip-path="url(#clip-path-7)"><path id="Path_1625" data-name="Path 1625" class="cls-28" d="M49 18.242l-6-3.457a4.819 4.819 0 01-1.411-1.27c-1.334-1.835-1.546-4.587-1.405-6.915l6 3.457c-.141 2.328 0 5.08 1.411 6.915A4.918 4.918 0 0049 18.242" transform="translate(-40.147 -6.6)"/></g></g><g id="Group_878" data-name="Group 878" transform="translate(19.474 4.657)"><path id="Path_1627" data-name="Path 1627" class="cls-43" d="M33.6 15.137l-6-3.457 8.89-5.08 6 3.457z" transform="translate(-27.6 -6.6)"/></g><g id="Group_879" data-name="Group 879" transform="translate(19.474)"><path id="Path_1628" data-name="Path 1628" class="cls-38" d="M33.6 10.372l-6-3.457L39.524 0l6 3.457z" transform="translate(-27.6)"/></g><g id="Group_881" data-name="Group 881" transform="translate(2.54 32.739)"><g id="Group_880" data-name="Group 880" clip-path="url(#clip-path-8)"><path id="Path_1629" data-name="Path 1629" class="cls-41" d="M19.193 73.706l-6-3.457-.635-.423C7.057 66.156 4.023 58.254 3.6 46.4l6 3.457c.423 11.854 3.457 19.756 8.961 23.5a2.859 2.859 0 00.635.353" transform="translate(-3.6 -46.4)"/></g></g><g id="Group_883" data-name="Group 883" transform="translate(2.54 14.888)"><g id="Group_882" data-name="Group 882" clip-path="url(#clip-path-9)"><path id="Path_1631" data-name="Path 1631" d="M9.6 49.416l-6-3.457c.353-.353.776-.706 1.129-1.058l6 3.457c-.423.353-.776.706-1.129 1.058" transform="translate(-3.6 -28.107)" fill="#59842d"/><path id="Path_1632" data-name="Path 1632" d="M11.1 47.71l-6-3.457A14.737 14.737 0 006.511 42.7l6 3.457A14.736 14.736 0 0111.1 47.71" transform="translate(-4.042 -27.46)" fill="#57812d"/><path id="Path_1633" data-name="Path 1633" class="cls-37" d="M13.2 45.786l-6-3.457a7.124 7.124 0 00.917-1.129l6 3.457a7.124 7.124 0 00-.917 1.129" transform="translate(-4.66 -27.018)"/><path id="Path_1634" data-name="Path 1634" class="cls-36" d="M14.5 44.275l-6-3.457c.212-.282.494-.635.706-.917l6 3.457a4.53 4.53 0 00-.706.917" transform="translate(-5.043 -26.635)"/><path id="Path_1635" data-name="Path 1635" class="cls-35" d="M15.5 42.9l-6-3.457a5.886 5.886 0 00.564-.847l6 3.457a5.886 5.886 0 00-.564.847" transform="translate(-5.337 -26.252)"/><path id="Path_1636" data-name="Path 1636" class="cls-34" d="M16.3 41.7l-6-3.457c.141-.282.353-.564.494-.847l6 3.457c-.212.353-.353.564-.494.847" transform="translate(-5.573 -25.899)"/><path id="Path_1637" data-name="Path 1637" class="cls-33" d="M17 40.633l-6-3.457c.141-.282.282-.494.423-.776l6 3.457a7.7 7.7 0 00-.423.776" transform="translate(-5.779 -25.605)"/><path id="Path_1638" data-name="Path 1638" class="cls-32" d="M17.6 39.533l-6-3.457c.141-.282.282-.494.423-.776l6 3.457a7.7 7.7 0 00-.423.776" transform="translate(-5.955 -25.281)"/><path id="Path_1639" data-name="Path 1639" class="cls-31" d="M18.2 38.3l-6-3.457a4.317 4.317 0 00.353-.843l6 3.457c-.141.353-.212.564-.353.847" transform="translate(-6.132 -24.898)"/><path id="Path_1640" data-name="Path 1640" class="cls-30" d="M18.7 37.2l-6-3.457c.071-.212.212-.423.282-.635 0-.071.071-.141.071-.212l6 3.457c0 .071-.071.141-.071.212-.071.212-.212.423-.282.635" transform="translate(-6.279 -24.574)"/><path id="Path_1641" data-name="Path 1641" d="M19.2 35.975l-6-3.457c.141-.282.212-.564.353-.917l6 3.457c-.141.282-.212.564-.353.917" transform="translate(-6.426 -24.191)" fill="#446524"/><path id="Path_1642" data-name="Path 1642" d="M19.6 34.645l-6-3.457a5.2 5.2 0 00.282-.988l6 3.457a5.2 5.2 0 01-.282.988" transform="translate(-6.544 -23.779)" fill="#426123"/><path id="Path_1643" data-name="Path 1643" d="M20.1 33.186l-6-3.457a8.775 8.775 0 00.282-1.129l6 3.457c-.071.353-.212.706-.282 1.129" transform="translate(-6.691 -23.308)" fill="#405e22"/><path id="Path_1644" data-name="Path 1644" d="M20.5 31.41l-6-3.457a11.965 11.965 0 00.282-1.552l6 3.457c-.071.494-.212.988-.282 1.552" transform="translate(-6.809 -22.66)" fill="#3e5b21"/><path id="Path_1645" data-name="Path 1645" class="cls-41" d="M20.8 28.3l-6-3.457a13.47 13.47 0 00.071-3.74l6 3.457a13.47 13.47 0 01-.071 3.74" transform="translate(-6.898 -21.1)"/></g></g><g id="Group_884" data-name="Group 884" transform="translate(10.584 9.737)"><path id="Path_1647" data-name="Path 1647" class="cls-43" d="M21 22.408l-6-3.457 8.89-5.151 6 3.457z" transform="translate(-15 -13.8)"/></g><g id="Group_886" data-name="Group 886" transform="translate(0 31.892)"><path id="Path_1648" data-name="Path 1648" class="cls-38" d="M16.158 76.6l-6-3.457C5.221 70.248.141 62.981 0 45.2l6 3.457c.138 17.781 5.219 25.048 10.158 27.943z" transform="translate(0 -45.2)"/><g id="Group_885" data-name="Group 885" clip-path="url(#clip-path-10)"><path id="Path_1649" data-name="Path 1649" class="cls-38" d="M16.158 76.6l-6-3.457C5.221 70.248.141 62.981 0 45.2l6 3.457c.141 17.781 5.221 25.048 10.16 27.941" transform="translate(0 -45.2)"/></g></g><g id="Group_887" data-name="Group 887" transform="translate(5.997 3.457)"><path id="Path_1651" data-name="Path 1651" class="cls-53" d="M39.9 4.9c-.212.706-3.74 13.97 7.62 9.314-.071 34.15-18.415 51.084-19.4 52-.988.212-19.4 4.516-19.615-29.493 11.36-8.467 7.761-17.639 7.55-18.063l11.924-6.915zm-3.74 46.85a73.948 73.948 0 008.82-33.727c-3.1.847-5.362.282-6.7-1.552s-1.552-4.586-1.411-6.915l-8.89 5.151-8.89 5.08a19.284 19.284 0 01-1.341 8.467 23.621 23.621 0 01-6.7 9.314C11.463 49.422 14.5 57.324 20 61.064a12.7 12.7 0 008.114 2.046 55.169 55.169 0 008.044-11.36" transform="translate(-8.5 -4.9)"/></g><g id="Group_889" data-name="Group 889" transform="translate(8.537 8.114)"><g id="Group_888" data-name="Group 888"><path id="Path_1652" data-name="Path 1652" d="M37.924 11.5c-.141 2.328 0 5.08 1.411 6.915 1.411 1.905 3.669 2.4 6.7 1.552a73.713 73.713 0 01-8.82 33.727 61.122 61.122 0 01-8.044 11.43 12.783 12.783 0 01-8.114-2.046c-5.5-3.74-8.537-11.642-8.961-23.5a24.129 24.129 0 006.7-9.314 19.284 19.284 0 001.348-8.464l8.89-5.151z" transform="translate(-12.1 -11.5)" fill="url(#linear-gradient-3)"/></g></g><g id="Group_890" data-name="Group 890" transform="translate(7.55 6.915)"><path id="Path_1653" data-name="Path 1653" class="cls-38" d="M16.7 20.1l-6-3.457L22.624 9.8l6 3.457z" transform="translate(-10.7 -9.8)"/></g><g id="Group_892" data-name="Group 892" transform="translate(0 13.829)"><path id="Path_1654" data-name="Path 1654" class="cls-38" d="M6 41.12l-6-3.457C11.36 29.2 7.761 20.023 7.55 19.6l6 3.457c.138.424 3.737 9.596-7.55 18.063z" transform="translate(0 -19.6)"/><g id="Group_891" data-name="Group 891" clip-path="url(#clip-path-11)"><path id="Path_1655" data-name="Path 1655" class="cls-38" d="M6 47.627L0 44.17a35.08 35.08 0 002.893-2.47l6 3.457A35.081 35.081 0 016 47.627" transform="translate(0 -26.107)"/><path id="Path_1656" data-name="Path 1656" class="cls-38" d="M10 44.627L4 41.17c.423-.423.847-.847 1.2-1.27l6 3.457c-.353.423-.776.847-1.2 1.27" transform="translate(-1.178 -25.577)"/><path id="Path_1657" data-name="Path 1657" class="cls-38" d="M11.7 43l-6-3.457a7.474 7.474 0 00.706-.847l6 3.457A7.473 7.473 0 0111.7 43" transform="translate(-1.678 -25.224)"/><path id="Path_1658" data-name="Path 1658" class="cls-38" d="M12.7 41.833l-6-3.457c.212-.282.353-.494.564-.776l6 3.457a5.385 5.385 0 01-.564.776" transform="translate(-1.973 -24.9)"/><path id="Path_1659" data-name="Path 1659" class="cls-38" d="M13.5 40.763l-6-3.457a2.534 2.534 0 00.494-.706l6 3.457a2.534 2.534 0 01-.494.706" transform="translate(-2.208 -24.605)"/><path id="Path_1660" data-name="Path 1660" class="cls-38" d="M14.2 39.892l-6-3.457a2.86 2.86 0 00.353-.635l6 3.457a2.86 2.86 0 00-.353.635" transform="translate(-2.414 -24.37)"/><path id="Path_1661" data-name="Path 1661" class="cls-38" d="M14.7 39.022l-6-3.457A3.938 3.938 0 019.053 35l6 3.457a3.939 3.939 0 00-.353.564" transform="translate(-2.562 -24.134)"/><path id="Path_1662" data-name="Path 1662" class="cls-38" d="M15.2 38.222l-6-3.457c.071-.212.212-.353.282-.564l6 3.457a1.418 1.418 0 00-.282.564" transform="translate(-2.709 -23.899)"/><path id="Path_1663" data-name="Path 1663" class="cls-38" d="M15.6 37.322l-6-3.457a4.19 4.19 0 01.282-.564l6 3.457a4.16 4.16 0 00-.282.564" transform="translate(-2.826 -23.634)"/><path id="Path_1664" data-name="Path 1664" class="cls-38" d="M15.927 36.492L10 33.035l.212-.635 6 3.457a2.506 2.506 0 01-.282.635" transform="translate(-2.944 -23.369)"/><path id="Path_1665" data-name="Path 1665" class="cls-38" d="M16.3 35.692l-6-3.457.212-.635 6 3.457-.212.635" transform="translate(-3.033 -23.133)"/><path id="Path_1666" data-name="Path 1666" class="cls-38" d="M16.6 34.763l-6-3.457c.071-.212.141-.494.212-.706l6 3.457a8.832 8.832 0 00-.212.706" transform="translate(-3.121 -22.839)"/><path id="Path_1667" data-name="Path 1667" class="cls-38" d="M16.927 33.6L11 30.147l.212-.847 6 3.457a3.978 3.978 0 00-.282.847" transform="translate(-3.239 -22.456)"/><path id="Path_1668" data-name="Path 1668" class="cls-38" d="M17.2 32.386l-6-3.457c.071-.423.141-.776.212-1.129l6 3.457c-.071.353-.141.706-.212 1.129" transform="translate(-3.298 -22.014)"/><path id="Path_1669" data-name="Path 1669" class="cls-38" d="M17.262 28.843l-6-3.457A12.42 12.42 0 0010.7 19.6l6 3.457a12.219 12.219 0 01.564 5.786" transform="translate(-3.15 -19.6)"/></g></g></g><path id="Union_39" data-name="Union 39" d="M-463.915 21083.184l.017-.01-64.1-36.922 2.175-1.25 64.249 36.984-.021.014.144 105.453-2.771 1.574z" transform="translate(3675.199 -11410.219)" fill="url(#linear-gradient-4)"/><g id="Group_916" data-name="Group 916" transform="translate(3241.204 9698.399)"><g id="Group_895" data-name="Group 895" transform="translate(9.404 1.731)"><path id="Path_1671" data-name="Path 1671" class="cls-38" d="M37.5 6.9l1.056.6a2.15 2.15 0 01.905 1.961l-1.056-.6A2.094 2.094 0 0037.5 6.9z" transform="translate(-37.5 -6.9)"/><g id="Group_894" data-name="Group 894" clip-path="url(#clip-path-12)"><path id="Path_1672" data-name="Path 1672" class="cls-38" d="M39.461 9.465l-1.056-.6A2.122 2.122 0 0037.5 6.9l1.056.6a2.15 2.15 0 01.905 1.961" transform="translate(-37.5 -6.9)"/></g></g><g id="Group_897" data-name="Group 897" transform="translate(7.216)"><path id="Path_1674" data-name="Path 1674" class="cls-38" d="M31.817.288l1.056.629a2.931 2.931 0 00-3.017.3L28.8.615a3 3 0 013.017-.327z" transform="translate(-28.8 -.015)"/><g id="Group_896" data-name="Group 896" clip-path="url(#clip-path-13)"><path id="Path_1675" data-name="Path 1675" class="cls-38" d="M29.856 2.105L28.8 1.5a3.38 3.38 0 01.6-.3l1.056.6a3.38 3.38 0 00-.6.3" transform="translate(-28.8 -.902)"/><path id="Path_1676" data-name="Path 1676" class="cls-38" d="M32.256 1.279L31.2.676A3.991 3.991 0 0131.7.5l1.056.6a2.958 2.958 0 00-.5.176" transform="translate(-30.597 -.378)"/><path id="Path_1677" data-name="Path 1677" class="cls-38" d="M34.156.879L33.1.275 33.477.2l1.056.6c-.126.025-.226.05-.377.075" transform="translate(-32.019 -.154)"/><path id="Path_1678" data-name="Path 1678" class="cls-38" d="M35.656.654L34.6.05a1.73 1.73 0 01.327-.05l1.056.6c-.1.025-.2.025-.327.05" transform="translate(-33.142 -.004)"/><path id="Path_1679" data-name="Path 1679" class="cls-38" d="M36.956.629L35.9 0h.277l1.056.6a1.031 1.031 0 00-.277.025" transform="translate(-34.115 -.004)"/><path id="Path_1680" data-name="Path 1680" class="cls-38" d="M38.056.629L37 0c.075 0 .176.025.251.025l1.056.6h-.251" transform="translate(-34.938 -.004)"/><path id="Path_1681" data-name="Path 1681" class="cls-38" d="M39.056.729L38 .1c.075.025.151.025.251.05l1.056.6c-.075 0-.151-.025-.251-.025" transform="translate(-35.687 -.079)"/><path id="Path_1682" data-name="Path 1682" class="cls-38" d="M40.056 1L39 .4l.226.075 1.056.6L40.056 1" transform="translate(-36.435 -.303)"/><path id="Path_1683" data-name="Path 1683" class="cls-38" d="M40.956 1.3L39.9.7c.075.025.151.075.226.1l1.056.6c-.075-.025-.151-.075-.226-.1" transform="translate(-37.109 -.528)"/><path id="Path_1684" data-name="Path 1684" class="cls-38" d="M41.756 1.7L40.7 1.1a.025.025 0 01.025.025l1.031.578c.025.025.025 0 0 0" transform="translate(-37.708 -.827)"/></g></g><g id="Group_915" data-name="Group 915" transform="translate(0 .574)"><g id="Group_899" data-name="Group 899" transform="translate(6.034 11.289)"><g id="Group_898" data-name="Group 898" clip-path="url(#clip-path-14)"><path id="Path_1686" data-name="Path 1686" d="M28.55 56.24l-4.45-2.59c0-.025.025-.025.025-.05l4.45 2.59c0 .025 0 .025-.025.05" transform="translate(-24.1 -51.991)" fill="#1d212a"/><path id="Path_1687" data-name="Path 1687" d="M28.65 55.965l-4.45-2.59c.025-.025.025-.05.05-.075l4.45 2.59c0 .025-.025.05-.05.075" transform="translate(-24.175 -51.766)" fill="#1d2029"/><path id="Path_1688" data-name="Path 1688" d="M28.85 55.665l-4.45-2.59c.025-.025.025-.05.05-.075l4.45 2.59c0 .025-.025.05-.05.075" transform="translate(-24.325 -51.542)" fill="#1c1f28"/><path id="Path_1689" data-name="Path 1689" class="cls-63" d="M29.05 55.365l-4.45-2.59c.025-.025.025-.05.05-.075l4.45 2.59c-.025.025-.025.05-.05.075" transform="translate(-24.474 -51.317)"/><path id="Path_1690" data-name="Path 1690" class="cls-64" d="M29.25 55.065l-4.45-2.59c.025-.025.025-.05.05-.075l4.45 2.59c-.025.025-.05.05-.05.075" transform="translate(-24.624 -51.093)"/><path id="Path_1691" data-name="Path 1691" class="cls-65" d="M29.35 54.765l-4.45-2.59c0-.025.025-.05.025-.075l4.45 2.59a.092.092 0 01-.025.075" transform="translate(-24.699 -50.868)"/><path id="Path_1692" data-name="Path 1692" class="cls-66" d="M29.55 54.465l-4.45-2.59c0-.025.025-.05.025-.075l4.45 2.59c0 .025-.025.05-.025.075" transform="translate(-24.849 -50.643)"/><path id="Path_1693" data-name="Path 1693" d="M29.65 54.165l-4.45-2.59c0-.025.025-.05.025-.075l4.45 2.565c0 .05 0 .075-.025.1" transform="translate(-24.923 -50.419)" fill="#191c24"/><path id="Path_1694" data-name="Path 1694" d="M29.75 53.69L25.3 51.1c0-.025.025-.05.025-.1l4.45 2.59c0 .05 0 .075-.025.1" transform="translate(-24.998 -50.045)" fill="#191c23"/><path id="Path_1695" data-name="Path 1695" d="M29.875 53.39L25.4 50.8c0-.025.025-.075.025-.1l4.475 2.59c-.025.025-.025.05-.025.1" transform="translate(-25.073 -49.82)" fill="#181b22"/><path id="Path_1696" data-name="Path 1696" d="M29.975 52.915L25.5 50.326c0-.05.025-.075.025-.126l4.45 2.59v.126" transform="translate(-25.148 -49.446)" fill="#181a21"/><path id="Path_1697" data-name="Path 1697" d="M29.3 50.544l-4.45-2.59v-.176a.667.667 0 00-.25-.578l4.45 2.59a.667.667 0 01.251.578.213.213 0 010 .176" transform="translate(-24.474 -47.2)" fill="#171a21"/></g></g><g id="Group_901" data-name="Group 901" transform="translate(4.878 13.477)"><g id="Group_900" data-name="Group 900" clip-path="url(#clip-path-15)"><path id="Path_1699" data-name="Path 1699" class="cls-66" d="M23.975 58.49L19.5 55.9l4.475 2.59" transform="translate(-19.5 -55.9)"/><path id="Path_1700" data-name="Path 1700" class="cls-65" d="M24.05 58.49L19.6 55.9c.025 0 .025.025.05.025l4.45 2.59c-.025 0-.025-.025-.05-.025" transform="translate(-19.575 -55.9)"/><path id="Path_1701" data-name="Path 1701" class="cls-64" d="M24.175 58.59L19.7 56c.025 0 .025 0 .05.025l4.45 2.59a.025.025 0 00-.025-.025" transform="translate(-19.65 -55.975)"/><path id="Path_1702" data-name="Path 1702" class="cls-63" d="M24.375 58.69L19.9 56.1h.05l4.45 2.59h-.025" transform="translate(-19.799 -56.05)"/></g></g><g id="Group_903" data-name="Group 903" transform="translate(5.531 11.219)"><g id="Group_902" data-name="Group 902" clip-path="url(#clip-path-16)"><path id="Path_1704" data-name="Path 1704" class="cls-74" d="M26.55 49.84l-4.45-2.59c.05-.025.075-.05.126-.05l4.45 2.59c-.05 0-.075.025-.126.05" transform="translate(-22.1 -47.13)"/><path id="Path_1705" data-name="Path 1705" class="cls-75" d="M27.05 49.715l-4.45-2.59a.151.151 0 01.1-.025l4.45 2.59a.151.151 0 00-.1.025" transform="translate(-22.474 -47.055)"/><path id="Path_1706" data-name="Path 1706" class="cls-76" d="M27.45 49.515L23 46.925c.025 0 .05-.025.075-.025l4.45 2.615h-.075" transform="translate(-22.774 -46.905)"/><path id="Path_1707" data-name="Path 1707" class="cls-77" d="M27.75 49.59L23.3 47h.075l4.45 2.59a.047.047 0 00-.075 0" transform="translate(-22.998 -46.98)"/><path id="Path_1708" data-name="Path 1708" class="cls-78" d="M28.05 49.49L23.6 46.9h.05l4.45 2.59h-.05" transform="translate(-23.223 -46.905)"/><path id="Path_1709" data-name="Path 1709" class="cls-79" d="M28.25 49.49L23.8 46.9h.05l4.45 2.59c0 .025-.025 0-.05 0" transform="translate(-23.373 -46.905)"/><path id="Path_1710" data-name="Path 1710" class="cls-80" d="M28.475 49.59L24 47h.05l4.475 2.59h-.05" transform="translate(-23.522 -46.98)"/><path id="Path_1711" data-name="Path 1711" class="cls-81" d="M28.675 49.59L24.2 47c.025 0 .025 0 .05.025l4.45 2.59-.025-.025" transform="translate(-23.672 -46.98)"/><path id="Path_1712" data-name="Path 1712" class="cls-82" d="M28.85 49.69L24.4 47.1c.025 0 .025.025.05.025l4.45 2.59c0-.025-.025-.025-.05-.025" transform="translate(-23.822 -47.055)"/><path id="Path_1713" data-name="Path 1713" class="cls-83" d="M29.05 49.79L24.6 47.2l4.45 2.59" transform="translate(-23.971 -47.13)"/></g></g><g id="Group_905" data-name="Group 905" transform="translate(4.626 11.34)"><g id="Group_904" data-name="Group 904" clip-path="url(#clip-path-17)"><path id="Path_1715" data-name="Path 1715" d="M23.227 56.244l-4.475-2.59a.667.667 0 01-.251-.578V52.9l4.45 2.59v.176a.623.623 0 00.277.578" transform="translate(-18.5 -51.517)" fill="#373637"/><path id="Path_1716" data-name="Path 1716" d="M22.975 55.115L18.5 52.526a.227.227 0 01.025-.126l4.45 2.59v.126" transform="translate(-18.5 -51.143)" fill="#393839"/><path id="Path_1717" data-name="Path 1717" d="M23.075 54.69L18.6 52.1c0-.025.025-.075.025-.1l4.45 2.59v.1" transform="translate(-18.575 -50.843)" fill="#3b3a3b"/><path id="Path_1718" data-name="Path 1718" d="M23.175 54.29L18.7 51.7c0-.025.025-.05.025-.1l4.45 2.59v.1" transform="translate(-18.65 -50.544)" fill="#3d3c3c"/><path id="Path_1719" data-name="Path 1719" d="M23.275 53.965l-4.475-2.59c0-.025.025-.05.025-.075l4.45 2.59c.025.025 0 .05 0 .075" transform="translate(-18.725 -50.319)" fill="#3f3d3e"/><path id="Path_1720" data-name="Path 1720" class="cls-83" d="M23.45 53.665L19 51.075c0-.025.025-.05.025-.075l4.45 2.59c0 .025-.025.05-.025.075" transform="translate(-18.874 -50.095)"/><path id="Path_1721" data-name="Path 1721" class="cls-82" d="M23.55 53.365l-4.45-2.59c0-.025.025-.05.025-.075l4.475 2.59c-.025.025-.025.05-.05.075" transform="translate(-18.949 -49.87)"/><path id="Path_1722" data-name="Path 1722" class="cls-81" d="M23.675 53.065l-4.475-2.59c0-.025.025-.05.05-.075l4.45 2.59c0 .025-.025.05-.025.075" transform="translate(-19.024 -49.646)"/><path id="Path_1723" data-name="Path 1723" class="cls-80" d="M23.85 52.765l-4.45-2.59c.025-.025.025-.05.05-.075l4.45 2.59c-.025.025-.025.05-.05.075" transform="translate(-19.174 -49.421)"/><path id="Path_1724" data-name="Path 1724" class="cls-79" d="M24.05 52.465l-4.45-2.59c.025-.025.025-.05.05-.075l4.45 2.59c-.025.025-.05.05-.05.075" transform="translate(-19.323 -49.197)"/><path id="Path_1725" data-name="Path 1725" class="cls-78" d="M24.175 52.165l-4.475-2.59c.025-.025.025-.05.05-.075l4.45 2.59a.11.11 0 00-.025.075" transform="translate(-19.398 -48.972)"/><path id="Path_1726" data-name="Path 1726" class="cls-77" d="M24.45 51.765L20 49.175c.025-.025.05-.05.05-.075l4.45 2.59c-.025.025-.025.05-.05.075" transform="translate(-19.623 -48.673)"/><path id="Path_1727" data-name="Path 1727" class="cls-76" d="M24.65 51.39L20.2 48.8a.347.347 0 00.075-.1l4.45 2.59a.347.347 0 01-.075.1" transform="translate(-19.773 -48.373)"/><path id="Path_1728" data-name="Path 1728" class="cls-75" d="M24.95 51.09L20.5 48.5l.1-.1 4.45 2.59c-.025.025-.075.05-.1.1" transform="translate(-19.997 -48.149)"/><path id="Path_1729" data-name="Path 1729" class="cls-74" d="M25.35 50.316l-4.45-2.59a1.182 1.182 0 01.3-.226l4.45 2.59a1.182 1.182 0 00-.3.226" transform="translate(-20.297 -47.475)"/></g></g><g id="Group_906" data-name="Group 906" transform="translate(4.752 15.84)"><path id="Path_1731" data-name="Path 1731" d="M23.45 68.795L19 66.205l1.559-.905 4.475 2.59z" transform="translate(-19 -65.3)" fill="#21242f"/></g><g id="Group_907" data-name="Group 907" transform="translate(6.034 12.949)"><path id="Path_1732" data-name="Path 1732" d="M28.852 59.281l-4.475-2.59L24.1 53.8l4.45 2.59z" transform="translate(-24.1 -53.8)" fill="#171a20"/></g><g id="Group_908" data-name="Group 908" transform="translate(4.752 13.527)"><path id="Path_1733" data-name="Path 1733" d="M23.45 61.908L19 59.318l.277-3.218 4.45 2.59z" transform="translate(-19 -56.1)" fill="#3a3a3b"/></g><path id="Path_1734" data-name="Path 1734" class="cls-8" d="M27.405 39.514c.754-.453 1.383-.1 1.383.8l.025 5.833a3.052 3.052 0 01-1.383 2.393l-8.322 4.8c-.754.453-1.383.075-1.383-.8L17.7 46.7a2.986 2.986 0 011.383-2.389zm-3.344 8.926l-.277-2.891a2.047 2.047 0 00.4-1.081c0-.578-.4-.8-.905-.5a2 2 0 00-.905 1.559c0 .352.151.578.4.629L22.5 49.37l1.559-.93" transform="translate(-13.275 -30.01)"/><g id="Group_909" data-name="Group 909" transform="translate(9.101 13.811)"><path id="Path_1735" data-name="Path 1735" d="M37.177 57.349c.5-.277.905-.05.905.5a1.858 1.858 0 01-.4 1.081l.3 2.917-1.559.905.277-3.218c-.251-.05-.4-.277-.4-.629a1.9 1.9 0 01.877-1.556z" transform="translate(-36.296 -57.231)" fill="#4f4e4e"/></g><path id="Path_1736" data-name="Path 1736" class="cls-2" d="M14.557 31.79c.025 0 .05 0 .05-.025h.3a.151.151 0 01.1.025h.025c.025 0 .05.025.075.025h.025c.025 0 .05.025.1.05l-4.471-2.615a.092.092 0 00-.075-.025h-.05a.025.025 0 01-.025-.025h-.528c-.025 0-.075.025-.1.025h-.05c-.05.025-.126.05-.176.075l-8.3 4.853a.549.549 0 00-.126.075c-.025 0-.025.025-.05.025l-.075.075-.05.05c-.025.025-.05.025-.075.05l-.05.05-.025.025-.026.027c-.025.025-.05.075-.1.1l-.025.025c-.025.025-.025.025-.025.05-.025.025-.025.05-.05.075 0 .025-.025.025-.025.05l-.025.025-.05.05-.025.025c-.025.025-.025.05-.05.075a.025.025 0 00-.025.025v.025c-.025.05-.05.075-.075.126a.025.025 0 01-.025.025c-.025.025-.025.05-.05.075 0 .025-.025.025-.025.05s-.025.025-.025.05a.025.025 0 01-.025.025c0 .025-.025.05-.025.1v.025c-.025.05-.025.075-.05.126v.025c0 .025 0 .025-.025.05a.088.088 0 01-.025.05c0 .025 0 .025-.025.05 0 .025 0 .05-.025.05v.025a.092.092 0 01-.025.075.092.092 0 01-.025.075v.075c0 .025-.025.075-.025.1v.3l.025 5.833a1.28 1.28 0 00.226.754 1.094 1.094 0 00.176.151l4.45 2.59a.962.962 0 01-.4-.88l-.032-5.823v-.3a.151.151 0 01.025-.1 2795 2795 0 00.05-.151c0-.025.025-.075.025-.1s0-.05.025-.05c0-.025.025-.075.025-.1s0-.025.025-.05a.357.357 0 00.05-.151v-.025a.55.55 0 01.077-.13c0-.025.025-.025.025-.05.025-.05.05-.075.075-.126a.025.025 0 01.025-.025l.075-.151c0-.025.025-.025.025-.05.025-.025.05-.075.075-.1l.05-.05c.025-.025.05-.05.05-.075.025-.025.025-.05.05-.075s.025-.05.05-.05c.025-.025.05-.075.1-.1l.05-.05.05-.05.075-.075.05-.05.075-.075c.025 0 .025-.025.05-.025.05-.025.075-.05.126-.075l8.322-4.8c.05-.025.126-.05.176-.075.025 0 .025-.025.05-.025.031-.033.056-.033.081-.058z" transform="translate(-.1 -22.436)"/><g id="Group_910" data-name="Group 910" transform="translate(2.992 7.342)"><path id="Path_1737" data-name="Path 1737" class="cls-38" d="M13.056 37.761L12 37.157V31.5l1.031.6z" transform="translate(-12 -31.5)"/></g><g id="Group_911" data-name="Group 911" transform="translate(10.309 3.118)"><path id="Path_1738" data-name="Path 1738" class="cls-38" d="M42.156 20.961l-1.056-.6V14.7l1.056.6z" transform="translate(-41.1 -14.7)"/></g><g id="Group_913" data-name="Group 913" transform="translate(2.992)"><path id="Path_1739" data-name="Path 1739" class="cls-38" d="M13.031 10.245L12 9.642A9.35 9.35 0 0116.249 2.3l1.031.629a9.332 9.332 0 00-4.249 7.316z" transform="translate(-12 -2.3)"/><g id="Group_912" data-name="Group 912" clip-path="url(#clip-path-18)"><path id="Path_1740" data-name="Path 1740" class="cls-38" d="M13.031 29.633L12 29.03c0-.277.025-.553.05-.83l1.056.6a5.078 5.078 0 00-.075.83" transform="translate(-12 -21.688)"/><path id="Path_1741" data-name="Path 1741" class="cls-38" d="M13.256 27.082l-1.056-.6a3.952 3.952 0 01.1-.578l1.056.6a5.609 5.609 0 00-.1.578" transform="translate(-12.15 -19.966)"/><path id="Path_1742" data-name="Path 1742" class="cls-38" d="M13.656 25.081l-1.056-.6a3.35 3.35 0 01.126-.481l1.056.6a3.35 3.35 0 00-.126.478" transform="translate(-12.449 -18.544)"/><path id="Path_1743" data-name="Path 1743" class="cls-38" d="M14.056 23.256L13 22.627c.05-.151.075-.3.126-.427l1.056.6a3.04 3.04 0 01-.126.453" transform="translate(-12.749 -17.196)"/><path id="Path_1744" data-name="Path 1744" class="cls-38" d="M14.656 21.606L13.6 21c.05-.126.1-.277.151-.4l1.056.6a1.607 1.607 0 00-.151.4" transform="translate(-13.198 -15.999)"/><path id="Path_1745" data-name="Path 1745" class="cls-38" d="M15.156 20.081l-1.056-.6.151-.377 1.056.6-.151.377" transform="translate(-13.572 -14.876)"/><path id="Path_1746" data-name="Path 1746" class="cls-38" d="M15.856 18.581l-1.056-.6a2.537 2.537 0 01.176-.377l1.056.6a2.537 2.537 0 00-.176.377" transform="translate(-14.096 -13.753)"/><path id="Path_1747" data-name="Path 1747" class="cls-38" d="M16.456 17.255l-1.056-.6c.05-.126.126-.251.176-.352l1.056.6c-.05.1-.1.226-.176.352" transform="translate(-14.545 -12.78)"/><path id="Path_1748" data-name="Path 1748" class="cls-38" d="M17.256 15.755l-1.056-.6c.075-.126.126-.251.2-.352l1.056.6a2.512 2.512 0 00-.2.352" transform="translate(-15.144 -11.657)"/><path id="Path_1749" data-name="Path 1749" class="cls-38" d="M18.056 14.281L17 13.652c.075-.126.151-.251.226-.352l1.056.6a1.5 1.5 0 00-.226.377" transform="translate(-15.743 -10.534)"/><path id="Path_1750" data-name="Path 1750" class="cls-38" d="M18.856 12.881l-1.056-.6a3.276 3.276 0 01.251-.377l1.056.6a3.276 3.276 0 01-.251.377" transform="translate(-16.342 -9.486)"/><path id="Path_1751" data-name="Path 1751" class="cls-38" d="M19.856 11.381l-1.056-.6c.1-.126.176-.251.277-.377l1.056.6a3.6 3.6 0 01-.277.377" transform="translate(-17.09 -8.363)"/><path id="Path_1752" data-name="Path 1752" class="cls-38" d="M20.956 9.731l-1.056-.6a5.267 5.267 0 01.352-.427l1.056.6c-.1.126-.226.277-.352.427" transform="translate(-17.914 -7.091)"/><path id="Path_1753" data-name="Path 1753" class="cls-38" d="M22.356 7.806L21.3 7.2c.151-.176.3-.327.453-.5l1.056.6c-.151.151-.3.327-.453.5" transform="translate(-18.962 -5.594)"/><path id="Path_1754" data-name="Path 1754" class="cls-38" d="M24.256 4.01l-1.056-.6a9.36 9.36 0 011.408-1.11l1.056.629a6.374 6.374 0 00-1.408 1.081" transform="translate(-20.384 -2.3)"/></g></g><g id="Group_914" data-name="Group 914" transform="translate(4.023 .048)"><path id="Path_1756" data-name="Path 1756" class="cls-53" d="M20.349 3.07c2.338-1.358 4.249-.251 4.274 2.439v5.632l-1.182.679-.025-5.657c0-1.936-1.383-2.741-3.093-1.76a6.87 6.87 0 00-3.042 5.305l.025 5.657-1.182.679-.024-5.657a9.332 9.332 0 014.249-7.317z" transform="translate(-16.1 -2.489)"/></g></g></g></g></svg>