<svg xmlns="http://www.w3.org/2000/svg" width="1282.733" height="371.955" viewBox="0 0 1282.733 371.955"><defs><style>.cls-3{fill:none;stroke-linecap:round;stroke:#b6509e;opacity:.2}</style></defs><g id="Group_20038" data-name="Group 20038" transform="translate(2.063 -338.953)"><path id="Path_5858" data-name="Path 5858" d="M7686.68-15502.062s-252.4 266.688-688.531 123.414c-391.644-128.658-560.024 134.7-590.36 189.877" transform="translate(-6407.25 15899)" opacity=".7" stroke="#b6509e" fill="none" stroke-linecap="round"/><path id="Path_5859" data-name="Path 5859" d="M6402.75-15292s190.164 26.109 405.211-56.937 394.469-116.672 537.484-62.344 338.648 43.859 338.648 43.859" transform="translate(-6404.25 15899)" opacity=".3" stroke="#2ebac6" fill="none" stroke-linecap="round"/><path id="Path_5860" data-name="Path 5860" class="cls-3" d="M7684.094-15418.969s-246.531-60.422-445.289 45.82-548.711 0-548.711 0-145.8-62.9-284.945 136.1" transform="translate(-6404.648 15899)"/><path id="Path_5861" data-name="Path 5861" d="M6406-15436.079s59.391 161.907 378.68 130.267 374.227-202.2 606.719-167.7 295.117 184.438 295.117 184.438" transform="translate(-6406.5 15899)" opacity=".4" stroke="#2ebac6" fill="none" stroke-linecap="round"/><path id="Path_5858-2" data-name="Path 5858" d="M7878.794-15369.751c-152.592 72.87-391.225 130.121-701.146 28.309-267.346-87.825-454.756-35.293-577.932 44.676" transform="translate(-6599.25 15810.309)" opacity=".6" stroke="#2ebac6" fill="none" stroke-linecap="round"/><path id="Path_5859-2" data-name="Path 5859" class="cls-3" d="M6599.533-15247.158c92.16-7.678 208.283-27.78 330.591-75.013 279.879-108.084 513.393-151.848 699.524-81.141 78.919 29.979 170.15 44.8 248.906 51.909" transform="translate(-6599.25 15829.708)"/><path id="Path_5860-2" data-name="Path 5860" d="M7877.37-15435.835c-112.43-2.445-257.636 12.384-387.234 81.658-258.68 138.273-714.137 0-714.137 0s-76.271-32.9-178.062 8.934" transform="translate(-6597.648 15830.202)" opacity=".2" stroke="#2ebac6" fill="none" stroke-linecap="round"/><path id="Path_5861-2" data-name="Path 5861" d="M6598.188-15275.64c71.8 22.637 169.341 34.778 300.656 21.766 415.548-41.18 487.048-263.152 789.632-218.252 76.251 11.315 138.463 32.172 188.681 56.948" transform="translate(-6597.501 15817.535)" opacity=".5" stroke="#b6509e" fill="none" stroke-linecap="round"/></g></svg>